<svg xmlns="http://www.w3.org/2000/svg" xmlns:svg="http://www.w3.org/2000/svg" xmlns:xlink="http://www.w3.org/1999/xlink" id="svg6333" width="64" height="64" version="1.1"><defs id="defs6335"><linearGradient id="linearGradient3924-2-2-5-8"><stop id="stop3926-9-4-9-6" offset="0" style="stop-color:#fff;stop-opacity:1"/><stop id="stop3928-9-8-6-5" offset=".063" style="stop-color:#fff;stop-opacity:.23529412"/><stop id="stop3930-3-5-1-7" offset=".951" style="stop-color:#fff;stop-opacity:.15686275"/><stop id="stop3932-8-0-4-8" offset="1" style="stop-color:#fff;stop-opacity:.39215687"/></linearGradient><radialGradient id="radialGradient3337-2-2" cx="4.993" cy="43.5" r="2.5" fx="4.993" fy="43.5" gradientTransform="matrix(2.003784,0,0,1.4,27.98813,-17.4)" gradientUnits="userSpaceOnUse" xlink:href="#linearGradient3688-166-749-4-0-3-8"/><linearGradient id="linearGradient3688-166-749-4-0-3-8"><stop id="stop2883-4-0-1-8" offset="0" style="stop-color:#181818;stop-opacity:1"/><stop id="stop2885-9-2-9-6" offset="1" style="stop-color:#181818;stop-opacity:0"/></linearGradient><radialGradient id="radialGradient3339-1-4" cx="4.993" cy="43.5" r="2.5" fx="4.993" fy="43.5" gradientTransform="matrix(2.003784,0,0,1.4,-20.01187,-104.4)" gradientUnits="userSpaceOnUse" xlink:href="#linearGradient3688-464-309-9-2-4-2"/><linearGradient id="linearGradient3688-464-309-9-2-4-2"><stop id="stop2889-7-9-6-9" offset="0" style="stop-color:#181818;stop-opacity:1"/><stop id="stop2891-6-6-1-7" offset="1" style="stop-color:#181818;stop-opacity:0"/></linearGradient><linearGradient id="linearGradient3702-501-757-8-4-1-1"><stop id="stop2895-8-9-9-1" offset="0" style="stop-color:#181818;stop-opacity:0"/><stop id="stop2897-7-8-7-7" offset=".5" style="stop-color:#181818;stop-opacity:1"/><stop id="stop2899-4-5-1-5" offset="1" style="stop-color:#181818;stop-opacity:0"/></linearGradient><linearGradient id="linearGradient6394" x1="25.058" x2="25.058" y1="47.028" y2="39.999" gradientUnits="userSpaceOnUse" xlink:href="#linearGradient3702-501-757-8-4-1-1"/><linearGradient id="linearGradient5803-6"><stop style="stop-color:#fff;stop-opacity:1" id="stop5805-7" offset="0"/><stop style="stop-color:#e6f4f8;stop-opacity:1" id="stop5807-8" offset="1"/></linearGradient><linearGradient id="linearGradient3448" x1="24" x2="24" y1="5" y2="43" gradientTransform="matrix(1.4324324,0,0,1.4362832,-2.378381,-2.4707782)" gradientUnits="userSpaceOnUse" xlink:href="#linearGradient3924-2-2-5-8"/><linearGradient id="linearGradient3512" x1="167.983" x2="167.983" y1="13.399" y2="54.78" gradientTransform="matrix(0.99526986,0,0,0.94787606,-130.07701,-0.5191699)" gradientUnits="userSpaceOnUse" xlink:href="#linearGradient5803-6"/><linearGradient id="linearGradient848"><stop id="stop844" offset="0" style="stop-color:#64baff;stop-opacity:1"/><stop id="stop846" offset="1" style="stop-color:#3689e6;stop-opacity:1"/></linearGradient><linearGradient id="linearGradient1154" x1="32.687" x2="32.687" y1="4.718" y2="59.541" gradientUnits="userSpaceOnUse" xlink:href="#linearGradient848"/></defs><metadata id="metadata6338"/><g style="opacity:.6" id="g3712-8-2-4-4" transform="matrix(1.5789502,0,0,0.7142857,-5.894751,27.928572)"><rect style="fill:url(#radialGradient3337-2-2);fill-opacity:1;stroke:none" id="rect2801-5-5-7-9" width="5" height="7" x="38" y="40"/><rect style="fill:url(#radialGradient3339-1-4);fill-opacity:1;stroke:none" id="rect3696-3-0-3-7" width="5" height="7" x="-10" y="-47" transform="scale(-1,-1)"/><rect style="fill:url(#linearGradient6394);fill-opacity:1;stroke:none" id="rect3700-5-6-8-4" width="28" height="7" x="10" y="40"/></g><rect style="color:#000;fill:url(#linearGradient1154);fill-opacity:1;fill-rule:nonzero;stroke:none;stroke-width:.99999994;marker:none;visibility:visible;display:inline;overflow:visible;enable-background:accumulate" id="rect5505-21-3-8-5-2" width="55" height="55" x="4.5" y="4.5" rx="3" ry="3"/><rect style="opacity:.5;fill:none;stroke:url(#linearGradient3448);stroke-width:1;stroke-linecap:round;stroke-linejoin:round;stroke-miterlimit:4;stroke-opacity:1;stroke-dasharray:none;stroke-dashoffset:0" id="rect6741-5-0-2-3" width="53" height="53.142" x="5.5" y="5.429" rx="2" ry="2"/><rect style="opacity:.5;color:#000;fill:#000;stroke:#002e99;stroke-width:1;stroke-linecap:round;stroke-linejoin:round;stroke-miterlimit:4;stroke-opacity:1;stroke-dasharray:none;stroke-dashoffset:0;marker:none;visibility:visible;display:inline;overflow:visible;enable-background:accumulate;font-variant-east_asian:normal;vector-effect:none;fill-opacity:0" id="rect5505-21-3-8-9-1-1" width="55" height="55" x="4.5" y="4.5" rx="3" ry="3"/><path style="opacity:.05;color:#000;fill:#002e99;fill-opacity:1;fill-rule:nonzero;stroke:none;stroke-width:1;marker:none;visibility:visible;display:inline;overflow:visible;enable-background:accumulate" id="path4014" d="M 11.40625,12 C 10.106455,12 9,13.031423 9,14.34375 l 0,13.3125 C 9,28.968577 10.106456,30 11.40625,30 l 18.1875,0 C 30.893544,30 32,28.968577 32,27.65625 l 0,-13.3125 C 32,13.031423 30.893545,12 29.59375,12 z m 25.8125,2 C 36.529411,14 35.935094,14.366879 35.5625,14.84375 35.189906,15.320621 35,15.917044 35,16.5625 l 0,13.875 c 0,0.645456 0.189906,1.241879 0.5625,1.71875 C 35.935094,32.633121 36.529411,33 37.21875,33 l 15.5625,0 c 0.689339,0 1.283656,-0.36688 1.65625,-0.84375 C 54.810094,31.67938 55,31.082956 55,30.4375 l 0,-13.875 C 55,15.917044 54.810094,15.32062 54.4375,14.84375 54.064906,14.36688 53.470589,14 52.78125,14 z M 20.65625,35 C 19.218924,35 18,36.131138 18,37.5625 l 0,13.875 C 18,52.868862 19.218924,54 20.65625,54 l 21.6875,0 C 43.781076,54 45,52.868862 45,51.4375 l 0,-13.875 C 45,36.131138 43.781076,35 42.34375,35 z"/><path style="opacity:.15;color:#000;fill:#002e99;fill-opacity:1;fill-rule:nonzero;stroke:none;stroke-width:1;marker:none;visibility:visible;display:inline;overflow:visible;enable-background:accumulate" id="path3508-2" d="M 11.40625,13 C 10.63065,13 10,13.605084 10,14.34375 l 0,13.3125 C 10,28.394917 10.63065,29 11.40625,29 l 18.1875,0 C 30.36935,29 31,28.394917 31,27.65625 l 0,-13.3125 C 31,13.605084 30.36935,13 29.59375,13 l -18.1875,0 z m 25.8125,2 C 36.55395,15 36,15.706318 36,16.5625 l 0,13.875 C 36,31.293682 36.55395,32 37.21875,32 l 15.5625,0 C 53.446049,32 54,31.293682 54,30.4375 l 0,-13.875 C 54,15.706318 53.446049,15 52.78125,15 l -15.5625,0 z M 20.65625,36 C 19.732917,36 19,36.706318 19,37.5625 l 0,13.875 C 19,52.293682 19.732917,53 20.65625,53 l 21.6875,0 C 43.267083,53 44,52.293682 44,51.4375 l 0,-13.875 C 44,36.706318 43.267083,36 42.34375,36 l -21.6875,0 z"/><path style="color:#000;fill:url(#linearGradient3512);fill-opacity:1;fill-rule:nonzero;stroke:none;stroke-width:1;marker:none;visibility:visible;display:inline;overflow:visible;enable-background:accumulate" id="path3508" d="M 11.40625 12 C 10.63065 12 10 12.605084 10 13.34375 L 10 26.65625 C 10 27.394917 10.63065 28 11.40625 28 L 29.59375 28 C 30.36935 28 31 27.394917 31 26.65625 L 31 13.34375 C 31 12.605084 30.36935 12 29.59375 12 L 11.40625 12 z M 37.21875 14 C 36.55395 14 36 14.706318 36 15.5625 L 36 29.4375 C 36 30.293682 36.55395 31 37.21875 31 L 52.78125 31 C 53.446049 31 54 30.293682 54 29.4375 L 54 15.5625 C 54 14.706318 53.446049 14 52.78125 14 L 37.21875 14 z M 20.65625 35 C 19.732917 35 19 35.706318 19 36.5625 L 19 50.4375 C 19 51.293682 19.732917 52 20.65625 52 L 42.34375 52 C 43.267083 52 44 51.293682 44 50.4375 L 44 36.5625 C 44 35.706318 43.267083 35 42.34375 35 L 20.65625 35 z"/></svg>