<svg xmlns="http://www.w3.org/2000/svg" xmlns:osb="http://www.openswatchbook.org/uri/2009/osb" xmlns:svg="http://www.w3.org/2000/svg" xmlns:xlink="http://www.w3.org/1999/xlink" id="svg2" width="36" height="36" version="1.1"><defs id="defs4"><linearGradient id="linearGradient942"><stop style="stop-color:#4d4d4d;stop-opacity:1" id="stop938" offset="0"/><stop style="stop-color:#333;stop-opacity:1" id="stop940" offset="1"/></linearGradient><linearGradient id="linearGradient5827"><stop id="stop5829" offset="0" style="stop-color:#000;stop-opacity:1"/><stop style="stop-color:#000;stop-opacity:.49411765" id="stop5835" offset=".809"/><stop id="stop5831" offset="1" style="stop-color:#000;stop-opacity:0"/></linearGradient><linearGradient id="linearGradient8590" osb:paint="solid"><stop id="stop8592" offset="0" style="stop-color:#000;stop-opacity:1"/></linearGradient><linearGradient id="linearGradient4011-28"><stop id="stop4013-26" offset="0" style="stop-color:#fff;stop-opacity:1"/><stop style="stop-color:#fff;stop-opacity:.23529412" id="stop4015-7" offset=".508"/><stop id="stop4017-0" offset=".835" style="stop-color:#fff;stop-opacity:.15686275"/><stop id="stop4019-9" offset="1" style="stop-color:#fff;stop-opacity:.39215687"/></linearGradient><linearGradient id="linearGradient5190" x1="721.049" x2="721.049" y1="586.456" y2="607.513" gradientTransform="matrix(0.49144385,0,0,1.5031942,-333.19312,-880.11384)" gradientUnits="userSpaceOnUse" xlink:href="#linearGradient942"/><linearGradient id="linearGradient3089-9" x1="71.204" x2="71.204" y1="6.238" y2="44.341" gradientTransform="matrix(0.78378373,0,0,0.78378373,-38.223562,-2.87459)" gradientUnits="userSpaceOnUse" xlink:href="#linearGradient4011-28"/><radialGradient id="radialGradient956" cx="109" cy="485.375" r="18" fx="109" fy="485.375" gradientTransform="translate(-91,-467.375)" gradientUnits="userSpaceOnUse" xlink:href="#linearGradient5827"/></defs><metadata id="metadata7"/><path style="color:#000;display:inline;overflow:visible;visibility:visible;opacity:.5;fill:url(#radialGradient956);fill-opacity:1;fill-rule:nonzero;stroke:none;stroke-width:.99999982;marker:none;enable-background:accumulate" id="path2555-7-1-4-4-8-6-5-1-0-2-9-5" d="M 18.00003,0 C 8.06816,0 0,8.06821 0,18 0,27.93179 8.06816,36 18.00003,36 27.93179,36 36.00003,27.93179 36,18 36,8.06821 27.93179,0 18.00003,0 Z"/><path style="color:#000;display:inline;overflow:visible;visibility:visible;fill:#010202;fill-opacity:1;fill-rule:nonzero;stroke:none;stroke-width:.99999988;marker:none;enable-background:accumulate;opacity:.1" id="path2555-7-1-4-4-8-6-5-1-0-2-9-2" d="M 18.000021,1.9999996 C 9.1717,1.9999996 2,9.1717438 2,18 2,26.828256 9.1717,34 18.000021,34 26.828256,34 34.000021,26.828256 34,18 34,9.1717438 26.828256,1.9999996 18.000021,1.9999996 Z"/><path style="color:#000;display:inline;overflow:visible;visibility:visible;fill:url(#linearGradient5190);fill-opacity:1;fill-rule:nonzero;stroke:none;stroke-width:.99999982;marker:none;enable-background:accumulate" id="path2555-7-1-4-4-8-6-5-1-0-2-9" d="M 18.000021,1.499998 C 9.4475851,1.499998 2.5,8.4476254 2.5,16.999999 2.5,25.552373 9.4475851,32.5 18.000021,32.5 c 8.552353,0 15.500001,-6.947627 15.49998,-15.500001 0,-8.5523736 -6.947627,-15.500001 -15.49998,-15.500001 z"/><path style="color:#000;display:inline;overflow:visible;visibility:visible;opacity:.7;fill:none;stroke:#1a1a1a;stroke-width:.99999988;stroke-linecap:round;stroke-linejoin:round;stroke-miterlimit:4;stroke-dasharray:none;stroke-dashoffset:0;stroke-opacity:1;marker:none;enable-background:accumulate" id="path3019-2-0-4-7-1-46-65-2-0" d="M 33.5,17 C 33.5,8.43961 26.5604,1.5 17.99993,1.5 9.43953,1.5 2.500002,8.43961 2.500002,17 c 0,8.56038 6.939528,15.5 15.499928,15.5 C 26.5604,32.5 33.5,25.56038 33.5,17 Z"/><path id="path8655-2" d="M 32.5,16.99948 C 32.5,25.00788 26.00764,31.5 18.00017,31.5 9.99198,31.5 3.5,25.0078 3.5,16.99948 3.5,8.99147 9.99198,2.5 18.00017,2.5 26.00764,2.5 32.5,8.99147 32.5,16.99948 Z" style="color:#000;display:inline;overflow:visible;visibility:visible;opacity:.1;fill:none;stroke:url(#linearGradient3089-9);stroke-width:1;stroke-linecap:round;stroke-linejoin:round;stroke-miterlimit:4;stroke-dasharray:none;stroke-dashoffset:0;stroke-opacity:1;marker:none;enable-background:accumulate"/><path style="color:#000;clip-rule:nonzero;display:inline;overflow:visible;visibility:visible;opacity:.05;isolation:auto;mix-blend-mode:normal;color-interpolation:sRGB;color-interpolation-filters:linearRGB;solid-color:#000;solid-opacity:1;fill:#000;fill-opacity:1;fill-rule:nonzero;stroke:none;stroke-width:1;stroke-linecap:butt;stroke-linejoin:miter;stroke-miterlimit:4;stroke-dasharray:none;stroke-dashoffset:0;stroke-opacity:1;marker:none;color-rendering:auto;image-rendering:auto;shape-rendering:auto;text-rendering:auto;enable-background:accumulate" id="path5787" d="m 13.580081,11 c -0.66357,0 -1.33178,0.26145 -1.83203,0.76172 -1.00181,1.00181 -1.0018,2.66225 0,3.66406 l 2.58789,2.58594 -2.58789,2.58789 c -1.00181,1.00181 -1.00181,2.66225 0,3.66406 1.00181,1.00181 2.66226,1.00183 3.66406,0 L 18,21.67578 l 2.58789,2.58789 c 1.0018,1.00184 2.662261,1.00183 3.66406,0 1.00183,-1.00181 1.00183,-2.66225 0,-3.66406 l -2.58789,-2.58789 2.58789,-2.58594 c 1.00181,-1.00181 1.00182,-2.66226 0,-3.66406 -1.001799,-1.00182 -2.66226,-1.00182 -3.66406,0 L 18,14.34961 15.412111,11.76172 C 14.911861,11.26146 14.243651,11 13.580081,11 Z"/><path style="color:#000;clip-rule:nonzero;display:inline;overflow:visible;visibility:visible;opacity:.15;isolation:auto;mix-blend-mode:normal;color-interpolation:sRGB;color-interpolation-filters:linearRGB;solid-color:#000;solid-opacity:1;fill:#000;fill-opacity:1;fill-rule:nonzero;stroke:none;stroke-width:1;stroke-linecap:butt;stroke-linejoin:miter;stroke-miterlimit:4;stroke-dasharray:none;stroke-dashoffset:0;stroke-opacity:1;marker:none;color-rendering:auto;image-rendering:auto;shape-rendering:auto;text-rendering:auto;enable-background:accumulate" id="rect5962-1" d="m 13.580081,12.0919 c -0.38343,0 -0.76675,0.1476 -1.06055,0.44141 -0.5876,0.5876 -0.5876,1.53348 0,2.12109 l 3.35938,3.35742 -3.35938,3.35938 c -0.5876,0.5876 -0.5876,1.53349 0,2.12109 0.58761,0.58761 1.53349,0.58761 2.12109,0 L 18,20.13292 l 3.359381,3.35937 c 0.587599,0.58761 1.53349,0.58761 2.121089,0 0.587611,-0.5876 0.587611,-1.53349 0,-2.12109 l -3.359381,-3.35938 3.359382,-3.35742 c 0.58761,-0.58761 0.58761,-1.53349 0,-2.12109 -0.5876,-0.58761 -1.53349,-0.58761 -2.12109,0 L 18,15.89268 14.640621,12.53331 c -0.2938,-0.29381 -0.67711,-0.44141 -1.06054,-0.44141 z"/><path style="color:#000;display:inline;overflow:visible;visibility:visible;opacity:1;fill:#fff;fill-opacity:1;fill-rule:nonzero;stroke:none;stroke-width:2;marker:none;enable-background:accumulate" id="rect5962" d="m 13.580079,11.091797 c -0.38343,0 -0.766744,0.147603 -1.060547,0.441406 -0.587605,0.587606 -0.587605,1.533488 0,2.121094 l 3.359374,3.357422 -3.359375,3.359375 c -0.587605,0.587605 -0.587605,1.533488 0,2.121094 0.587607,0.587605 1.533489,0.587605 2.121095,0 L 18,19.132812 l 3.359375,3.359376 c 0.587606,0.587605 1.533487,0.587605 2.121094,0 0.587605,-0.587606 0.587605,-1.533489 0,-2.121094 l -3.359376,-3.359375 3.359376,-3.357422 c 0.587605,-0.587606 0.587605,-1.533488 0,-2.121094 -0.587607,-0.587606 -1.533488,-0.587606 -2.121094,0 L 18,14.892578 14.640626,11.533203 C 14.346823,11.2394 13.963508,11.091797 13.580079,11.091797 Z"/></svg>